<svg xmlns="http://www.w3.org/2000/svg" width="1840" height="412" viewBox="0 0 1840 412">
<rect width="100%" height="100%" fill="white"/>
<text x="920.0" y="28.0" font-size="18" text-anchor="middle" font-family="Arial">P90 latency vs arrival rate</text>
<text x="230.0" y="55.0" font-size="14" text-anchor="middle" font-family="Arial">long prompts</text>
<line x1="62" y1="302" x2="438" y2="302" stroke="#333"/>
<line x1="62" y1="72" x2="62" y2="302" stroke="#333"/>
<line x1="62" y1="302.0" x2="438" y2="302.0" stroke="#ddd" stroke-dasharray="3,3"/>
<text x="54.0" y="306.0" font-size="10" text-anchor="end" font-family="Arial">0.0</text>
<line x1="62" y1="244.5" x2="438" y2="244.5" stroke="#ddd" stroke-dasharray="3,3"/>
<text x="54.0" y="248.5" font-size="10" text-anchor="end" font-family="Arial">30.9</text>
<line x1="62" y1="187.0" x2="438" y2="187.0" stroke="#ddd" stroke-dasharray="3,3"/>
<text x="54.0" y="191.0" font-size="10" text-anchor="end" font-family="Arial">61.8</text>
<line x1="62" y1="129.5" x2="438" y2="129.5" stroke="#ddd" stroke-dasharray="3,3"/>
<text x="54.0" y="133.5" font-size="10" text-anchor="end" font-family="Arial">92.6</text>
<line x1="62" y1="72.0" x2="438" y2="72.0" stroke="#ddd" stroke-dasharray="3,3"/>
<text x="54.0" y="76.0" font-size="10" text-anchor="end" font-family="Arial">123.5</text>
<line x1="62.0" y1="302" x2="62.0" y2="307" stroke="#333"/>
<text x="62.0" y="322.0" font-size="10" text-anchor="middle" font-family="Arial">4</text>
<line x1="137.2" y1="302" x2="137.2" y2="307" stroke="#333"/>
<text x="137.2" y="322.0" font-size="10" text-anchor="middle" font-family="Arial">8</text>
<line x1="287.6" y1="302" x2="287.6" y2="307" stroke="#333"/>
<text x="287.6" y="322.0" font-size="10" text-anchor="middle" font-family="Arial">16</text>
<line x1="438.0" y1="302" x2="438.0" y2="307" stroke="#333"/>
<text x="438.0" y="322.0" font-size="10" text-anchor="middle" font-family="Arial">24</text>
<text x="250.0" y="344.0" font-size="11" text-anchor="middle" font-family="Arial">Arrival rate (req/s)</text>
<text x="18.0" y="187.0" font-size="11" text-anchor="middle" font-family="Arial">Latency p90 (ms)</text>
<polyline points="62.0,72.0 137.2,77.1 287.6,76.4 438.0,76.7" fill="none" stroke="#1f77b4" stroke-width="2.2"/>
<circle cx="62.0" cy="72.0" r="3.5" fill="#1f77b4"/>
<circle cx="137.2" cy="77.1" r="3.5" fill="#1f77b4"/>
<circle cx="287.6" cy="76.4" r="3.5" fill="#1f77b4"/>
<circle cx="438.0" cy="76.7" r="3.5" fill="#1f77b4"/>
<rect x="72" y="79" width="12" height="3" fill="#1f77b4"/>
<text x="90.0" y="83.0" font-size="10" text-anchor="start" font-family="Arial">rustinfer</text>
<polyline points="62.0,158.2 137.2,161.8 287.6,163.4 438.0,162.7" fill="none" stroke="#ff7f0e" stroke-width="2.2"/>
<circle cx="62.0" cy="158.2" r="3.5" fill="#ff7f0e"/>
<circle cx="137.2" cy="161.8" r="3.5" fill="#ff7f0e"/>
<circle cx="287.6" cy="163.4" r="3.5" fill="#ff7f0e"/>
<circle cx="438.0" cy="162.7" r="3.5" fill="#ff7f0e"/>
<rect x="72" y="97" width="12" height="3" fill="#ff7f0e"/>
<text x="90.0" y="101.0" font-size="10" text-anchor="start" font-family="Arial">vllm</text>
<text x="690.0" y="55.0" font-size="14" text-anchor="middle" font-family="Arial">medium prompts</text>
<line x1="522" y1="302" x2="898" y2="302" stroke="#333"/>
<line x1="522" y1="72" x2="522" y2="302" stroke="#333"/>
<line x1="522" y1="302.0" x2="898" y2="302.0" stroke="#ddd" stroke-dasharray="3,3"/>
<text x="514.0" y="306.0" font-size="10" text-anchor="end" font-family="Arial">0.0</text>
<line x1="522" y1="244.5" x2="898" y2="244.5" stroke="#ddd" stroke-dasharray="3,3"/>
<text x="514.0" y="248.5" font-size="10" text-anchor="end" font-family="Arial">28.9</text>
<line x1="522" y1="187.0" x2="898" y2="187.0" stroke="#ddd" stroke-dasharray="3,3"/>
<text x="514.0" y="191.0" font-size="10" text-anchor="end" font-family="Arial">57.7</text>
<line x1="522" y1="129.5" x2="898" y2="129.5" stroke="#ddd" stroke-dasharray="3,3"/>
<text x="514.0" y="133.5" font-size="10" text-anchor="end" font-family="Arial">86.6</text>
<line x1="522" y1="72.0" x2="898" y2="72.0" stroke="#ddd" stroke-dasharray="3,3"/>
<text x="514.0" y="76.0" font-size="10" text-anchor="end" font-family="Arial">115.4</text>
<line x1="522.0" y1="302" x2="522.0" y2="307" stroke="#333"/>
<text x="522.0" y="322.0" font-size="10" text-anchor="middle" font-family="Arial">4</text>
<line x1="597.2" y1="302" x2="597.2" y2="307" stroke="#333"/>
<text x="597.2" y="322.0" font-size="10" text-anchor="middle" font-family="Arial">8</text>
<line x1="747.6" y1="302" x2="747.6" y2="307" stroke="#333"/>
<text x="747.6" y="322.0" font-size="10" text-anchor="middle" font-family="Arial">16</text>
<line x1="898.0" y1="302" x2="898.0" y2="307" stroke="#333"/>
<text x="898.0" y="322.0" font-size="10" text-anchor="middle" font-family="Arial">24</text>
<text x="710.0" y="344.0" font-size="11" text-anchor="middle" font-family="Arial">Arrival rate (req/s)</text>
<text x="478.0" y="187.0" font-size="11" text-anchor="middle" font-family="Arial">Latency p90 (ms)</text>
<polyline points="522.0,72.0 597.2,80.5 747.6,80.4 898.0,80.6" fill="none" stroke="#1f77b4" stroke-width="2.2"/>
<circle cx="522.0" cy="72.0" r="3.5" fill="#1f77b4"/>
<circle cx="597.2" cy="80.5" r="3.5" fill="#1f77b4"/>
<circle cx="747.6" cy="80.4" r="3.5" fill="#1f77b4"/>
<circle cx="898.0" cy="80.6" r="3.5" fill="#1f77b4"/>
<rect x="532" y="79" width="12" height="3" fill="#1f77b4"/>
<text x="550.0" y="83.0" font-size="10" text-anchor="start" font-family="Arial">rustinfer</text>
<polyline points="522.0,151.8 597.2,151.8 747.6,153.2 898.0,155.8" fill="none" stroke="#ff7f0e" stroke-width="2.2"/>
<circle cx="522.0" cy="151.8" r="3.5" fill="#ff7f0e"/>
<circle cx="597.2" cy="151.8" r="3.5" fill="#ff7f0e"/>
<circle cx="747.6" cy="153.2" r="3.5" fill="#ff7f0e"/>
<circle cx="898.0" cy="155.8" r="3.5" fill="#ff7f0e"/>
<rect x="532" y="97" width="12" height="3" fill="#ff7f0e"/>
<text x="550.0" y="101.0" font-size="10" text-anchor="start" font-family="Arial">vllm</text>
<text x="1150.0" y="55.0" font-size="14" text-anchor="middle" font-family="Arial">mix prompts</text>
<line x1="982" y1="302" x2="1358" y2="302" stroke="#333"/>
<line x1="982" y1="72" x2="982" y2="302" stroke="#333"/>
<line x1="982" y1="302.0" x2="1358" y2="302.0" stroke="#ddd" stroke-dasharray="3,3"/>
<text x="974.0" y="306.0" font-size="10" text-anchor="end" font-family="Arial">0.0</text>
<line x1="982" y1="244.5" x2="1358" y2="244.5" stroke="#ddd" stroke-dasharray="3,3"/>
<text x="974.0" y="248.5" font-size="10" text-anchor="end" font-family="Arial">28.6</text>
<line x1="982" y1="187.0" x2="1358" y2="187.0" stroke="#ddd" stroke-dasharray="3,3"/>
<text x="974.0" y="191.0" font-size="10" text-anchor="end" font-family="Arial">57.2</text>
<line x1="982" y1="129.5" x2="1358" y2="129.5" stroke="#ddd" stroke-dasharray="3,3"/>
<text x="974.0" y="133.5" font-size="10" text-anchor="end" font-family="Arial">85.8</text>
<line x1="982" y1="72.0" x2="1358" y2="72.0" stroke="#ddd" stroke-dasharray="3,3"/>
<text x="974.0" y="76.0" font-size="10" text-anchor="end" font-family="Arial">114.4</text>
<line x1="982.0" y1="302" x2="982.0" y2="307" stroke="#333"/>
<text x="982.0" y="322.0" font-size="10" text-anchor="middle" font-family="Arial">4</text>
<line x1="1057.2" y1="302" x2="1057.2" y2="307" stroke="#333"/>
<text x="1057.2" y="322.0" font-size="10" text-anchor="middle" font-family="Arial">8</text>
<line x1="1207.6" y1="302" x2="1207.6" y2="307" stroke="#333"/>
<text x="1207.6" y="322.0" font-size="10" text-anchor="middle" font-family="Arial">16</text>
<line x1="1358.0" y1="302" x2="1358.0" y2="307" stroke="#333"/>
<text x="1358.0" y="322.0" font-size="10" text-anchor="middle" font-family="Arial">24</text>
<text x="1170.0" y="344.0" font-size="11" text-anchor="middle" font-family="Arial">Arrival rate (req/s)</text>
<text x="938.0" y="187.0" font-size="11" text-anchor="middle" font-family="Arial">Latency p90 (ms)</text>
<polyline points="982.0,74.4 1057.2,78.2 1207.6,72.0 1358.0,78.6" fill="none" stroke="#1f77b4" stroke-width="2.2"/>
<circle cx="982.0" cy="74.4" r="3.5" fill="#1f77b4"/>
<circle cx="1057.2" cy="78.2" r="3.5" fill="#1f77b4"/>
<circle cx="1207.6" cy="72.0" r="3.5" fill="#1f77b4"/>
<circle cx="1358.0" cy="78.6" r="3.5" fill="#1f77b4"/>
<rect x="992" y="79" width="12" height="3" fill="#1f77b4"/>
<text x="1010.0" y="83.0" font-size="10" text-anchor="start" font-family="Arial">rustinfer</text>
<polyline points="982.0,150.9 1057.2,150.5 1207.6,151.1 1358.0,154.7" fill="none" stroke="#ff7f0e" stroke-width="2.2"/>
<circle cx="982.0" cy="150.9" r="3.5" fill="#ff7f0e"/>
<circle cx="1057.2" cy="150.5" r="3.5" fill="#ff7f0e"/>
<circle cx="1207.6" cy="151.1" r="3.5" fill="#ff7f0e"/>
<circle cx="1358.0" cy="154.7" r="3.5" fill="#ff7f0e"/>
<rect x="992" y="97" width="12" height="3" fill="#ff7f0e"/>
<text x="1010.0" y="101.0" font-size="10" text-anchor="start" font-family="Arial">vllm</text>
<text x="1610.0" y="55.0" font-size="14" text-anchor="middle" font-family="Arial">short prompts</text>
<line x1="1442" y1="302" x2="1818" y2="302" stroke="#333"/>
<line x1="1442" y1="72" x2="1442" y2="302" stroke="#333"/>
<line x1="1442" y1="302.0" x2="1818" y2="302.0" stroke="#ddd" stroke-dasharray="3,3"/>
<text x="1434.0" y="306.0" font-size="10" text-anchor="end" font-family="Arial">0.0</text>
<line x1="1442" y1="244.5" x2="1818" y2="244.5" stroke="#ddd" stroke-dasharray="3,3"/>
<text x="1434.0" y="248.5" font-size="10" text-anchor="end" font-family="Arial">28.1</text>
<line x1="1442" y1="187.0" x2="1818" y2="187.0" stroke="#ddd" stroke-dasharray="3,3"/>
<text x="1434.0" y="191.0" font-size="10" text-anchor="end" font-family="Arial">56.3</text>
<line x1="1442" y1="129.5" x2="1818" y2="129.5" stroke="#ddd" stroke-dasharray="3,3"/>
<text x="1434.0" y="133.5" font-size="10" text-anchor="end" font-family="Arial">84.4</text>
<line x1="1442" y1="72.0" x2="1818" y2="72.0" stroke="#ddd" stroke-dasharray="3,3"/>
<text x="1434.0" y="76.0" font-size="10" text-anchor="end" font-family="Arial">112.6</text>
<line x1="1442.0" y1="302" x2="1442.0" y2="307" stroke="#333"/>
<text x="1442.0" y="322.0" font-size="10" text-anchor="middle" font-family="Arial">4</text>
<line x1="1517.2" y1="302" x2="1517.2" y2="307" stroke="#333"/>
<text x="1517.2" y="322.0" font-size="10" text-anchor="middle" font-family="Arial">8</text>
<line x1="1667.6" y1="302" x2="1667.6" y2="307" stroke="#333"/>
<text x="1667.6" y="322.0" font-size="10" text-anchor="middle" font-family="Arial">16</text>
<line x1="1818.0" y1="302" x2="1818.0" y2="307" stroke="#333"/>
<text x="1818.0" y="322.0" font-size="10" text-anchor="middle" font-family="Arial">24</text>
<text x="1630.0" y="344.0" font-size="11" text-anchor="middle" font-family="Arial">Arrival rate (req/s)</text>
<text x="1398.0" y="187.0" font-size="11" text-anchor="middle" font-family="Arial">Latency p90 (ms)</text>
<polyline points="1442.0,75.3 1517.2,72.0 1667.6,75.2 1818.0,74.8" fill="none" stroke="#1f77b4" stroke-width="2.2"/>
<circle cx="1442.0" cy="75.3" r="3.5" fill="#1f77b4"/>
<circle cx="1517.2" cy="72.0" r="3.5" fill="#1f77b4"/>
<circle cx="1667.6" cy="75.2" r="3.5" fill="#1f77b4"/>
<circle cx="1818.0" cy="74.8" r="3.5" fill="#1f77b4"/>
<rect x="1452" y="79" width="12" height="3" fill="#1f77b4"/>
<text x="1470.0" y="83.0" font-size="10" text-anchor="start" font-family="Arial">rustinfer</text>
<polyline points="1442.0,145.6 1517.2,148.9 1667.6,148.6 1818.0,152.1" fill="none" stroke="#ff7f0e" stroke-width="2.2"/>
<circle cx="1442.0" cy="145.6" r="3.5" fill="#ff7f0e"/>
<circle cx="1517.2" cy="148.9" r="3.5" fill="#ff7f0e"/>
<circle cx="1667.6" cy="148.6" r="3.5" fill="#ff7f0e"/>
<circle cx="1818.0" cy="152.1" r="3.5" fill="#ff7f0e"/>
<rect x="1452" y="97" width="12" height="3" fill="#ff7f0e"/>
<text x="1470.0" y="101.0" font-size="10" text-anchor="start" font-family="Arial">vllm</text>
</svg>